<svg xmlns="http://www.w3.org/2000/svg" width="100" height="100" viewBox="0 0 100 100">
  <defs>
    <pattern id="pat" x="0" y="0" width="100" height="100" patternUnits="userSpaceOnUse" viewBox="0 0 100 100">
      <g fill="#000">
        <rect fill="none" width="100" height="100"/>
        <path d="m73.4,107.21c1.79-1.16,3.29-3.39,4.45-6.63.85-2.37.91-4.63.16-6.54-.3-.77-.73-1.47-1.27-2.07,4.02.78,6.44,1.44,8.02,1.97-.13.04-.26.09-.39.15-1.07.47-1.86,1.34-2.28,2.51-.45,1.2-.42,2.42.09,3.51.15.32.34.63.57.91-.56.07-1.11.23-1.62.47-1.29.61-2.26,1.69-2.74,3.06-.48,1.35-.4,2.92.21,4.2.59,1.24,1.62,2.14,2.99,2.62.19.07.39.13.58.18,1.31.35,2.55.28,3.6-.22,1.2-.57,2.09-1.64,2.63-3.18.56-1.57.53-3.05-.09-4.29-.21-.42-.48-.8-.8-1.14.39-.09.76-.24,1.11-.45.9-.54,1.6-1.45,2.05-2.64h0c.42-1.23.37-2.36-.15-3.38-.12-.23-.25-.45-.41-.66.84.11,1.58.13,2.41,0,.35-.05.6-.38.55-.73s-.38-.6-.73-.55c-1.33.19-2.4-.02-4.46-.48h-.01c-1.48-.74-3.96-1.96-13.66-3.67-.08-.04-.17-.08-.27-.12-1.16-.52-3.58-1.59-5.81-1.84h-.03c-.05,0-.1,0-.16-.01-.9-.06-2.27-.15-3.7.75-1.63,1.02-2.96,3.05-4.06,6.19-1.12,3.12-2.09,5.82-3.24,8.89-.12.33.04.7.38.83.33.12.7-.04.83-.38,1.15-3.08,2.12-5.78,3.25-8.91h0c.98-2.82,2.17-4.68,3.52-5.53,1.09-.68,2.11-.61,2.94-.56.05,0,.1,0,.14,0,.8.09,1.63.3,2.42.55-.43.09-.87.22-1.3.41-1.87.83-3.26,2.6-4.27,5.4-.98,2.74-1.26,5.28-.81,7.33.49,2.25,1.83,3.82,3.87,4.56h.01c.17.06.33.11.5.16,1.81.48,3.48.24,4.97-.73Zm-8.09-4.27c-.4-1.82-.14-4.11.76-6.62.88-2.45,2.06-3.97,3.59-4.66.74-.33,1.89-.65,4.19-.22,1.37.59,2.42,1.68,2.97,3.07.63,1.61.57,3.56-.17,5.63-1.06,2.96-2.39,4.97-3.94,5.98-.66.43-1.38.68-2.12.74-.7.06-1.45-.04-2.23-.3-1.62-.59-2.64-1.81-3.04-3.62Zm19.43-.46s.04.01.06.02c2.37.87,3.27,2.83,2.41,5.24-.43,1.21-1.09,2.03-1.97,2.45-.62.3-1.69.54-3.2,0h0c-1.04-.37-1.82-1.04-2.26-1.96-.46-.97-.52-2.2-.16-3.22h0c.47-1.34,1.38-2.01,2.07-2.33.88-.42,1.91-.51,2.8-.27.09.02.17.05.26.08Zm.44-1.21c-.79-.29-1.47-.92-1.83-1.69-.36-.77-.38-1.64-.05-2.52h0c.3-.86.83-1.45,1.58-1.78.71-.31,1.6-.37,2.59-.19.93.49,1.58,1.08,1.92,1.76.35.69.38,1.49.08,2.36-.43,1.15-1.05,1.71-1.5,1.98-.75.45-1.67.48-2.74.1-.02,0-.04-.01-.06-.02Z"/>
        <path d="m23.4,107.21c1.79-1.16,3.29-3.39,4.45-6.63.85-2.37.91-4.63.16-6.54-.3-.77-.73-1.47-1.27-2.07,4.02.78,6.44,1.44,8.02,1.97-.13.04-.26.09-.39.15-1.07.47-1.86,1.34-2.28,2.51-.45,1.2-.42,2.42.09,3.51.15.32.34.63.57.91-.56.07-1.11.23-1.62.47-1.29.61-2.26,1.69-2.74,3.06-.48,1.35-.4,2.92.21,4.2.59,1.24,1.62,2.14,2.99,2.62.19.07.39.13.58.18,1.31.35,2.55.28,3.6-.22,1.2-.57,2.09-1.64,2.63-3.18.56-1.57.53-3.05-.09-4.29-.21-.42-.48-.8-.8-1.14.39-.09.76-.24,1.11-.45.9-.54,1.6-1.45,2.05-2.64h0c.42-1.23.37-2.36-.15-3.38-.12-.23-.25-.45-.41-.66.84.11,1.58.13,2.41,0,.35-.05.6-.38.55-.73s-.38-.6-.73-.55c-1.33.19-2.4-.02-4.46-.48h-.01c-1.48-.74-3.96-1.96-13.66-3.67-.08-.04-.17-.08-.27-.12-1.16-.52-3.58-1.59-5.81-1.84h-.03c-.05,0-.1,0-.16-.01-.9-.06-2.27-.15-3.7.75-1.63,1.02-2.96,3.05-4.06,6.19-1.12,3.12-2.09,5.82-3.24,8.89-.12.33.04.7.38.83.33.12.7-.04.83-.38,1.15-3.08,2.12-5.78,3.25-8.91h0c.98-2.82,2.17-4.68,3.52-5.53,1.09-.68,2.11-.61,2.94-.56.05,0,.1,0,.14,0,.8.09,1.63.3,2.42.55-.43.09-.87.22-1.3.41-1.87.83-3.26,2.6-4.27,5.4-.98,2.74-1.26,5.28-.81,7.33.49,2.25,1.83,3.82,3.87,4.56h.01c.17.06.33.11.5.16,1.81.48,3.48.24,4.97-.73Zm-8.09-4.27c-.4-1.82-.14-4.11.76-6.62.88-2.45,2.06-3.97,3.59-4.66.74-.33,1.89-.65,4.19-.22,1.37.59,2.42,1.68,2.97,3.07.63,1.61.57,3.56-.17,5.63-1.06,2.96-2.39,4.97-3.94,5.98-.66.43-1.38.68-2.12.74-.7.06-1.45-.04-2.23-.3-1.62-.59-2.64-1.81-3.04-3.62Zm19.43-.46s.04.01.06.02c2.37.87,3.27,2.83,2.41,5.24-.43,1.21-1.09,2.03-1.97,2.45-.62.3-1.69.54-3.2,0h0c-1.04-.37-1.82-1.04-2.26-1.96-.46-.97-.52-2.2-.16-3.22h0c.47-1.34,1.38-2.01,2.07-2.33.88-.42,1.91-.51,2.8-.27.09.02.17.05.26.08Zm.44-1.21c-.79-.29-1.47-.92-1.83-1.69-.36-.77-.38-1.64-.05-2.52h0c.3-.86.83-1.45,1.58-1.78.71-.31,1.6-.37,2.59-.19.93.49,1.58,1.08,1.92,1.76.35.69.38,1.49.08,2.36-.43,1.15-1.05,1.71-1.5,1.98-.75.45-1.67.48-2.74.1-.02,0-.04-.01-.06-.02Z"/>
        <path d="m98.4,57.21c1.79-1.16,3.29-3.39,4.45-6.63.85-2.37.91-4.63.16-6.54-.3-.77-.73-1.47-1.27-2.07,4.02.78,6.44,1.44,8.02,1.97-.13.04-.26.09-.39.15-1.07.47-1.86,1.34-2.28,2.51-.45,1.2-.42,2.42.09,3.51.15.32.34.63.57.91-.56.07-1.11.23-1.62.47-1.29.61-2.26,1.69-2.74,3.06-.48,1.35-.4,2.92.21,4.2.59,1.24,1.62,2.14,2.99,2.62.19.07.39.13.58.18,1.31.35,2.55.28,3.6-.22,1.2-.57,2.09-1.64,2.63-3.18.56-1.57.53-3.05-.09-4.29-.21-.42-.48-.8-.8-1.14.39-.09.76-.24,1.11-.45.9-.54,1.6-1.45,2.05-2.64h0c.42-1.23.37-2.36-.15-3.38-.12-.23-.25-.45-.41-.66.84.11,1.58.13,2.41,0,.35-.05.6-.38.55-.73s-.38-.6-.73-.55c-1.33.19-2.4-.02-4.46-.48h-.01c-1.48-.74-3.96-1.96-13.66-3.67-.08-.04-.17-.08-.27-.12-1.16-.52-3.58-1.59-5.81-1.84h-.03c-.05,0-.1,0-.16-.01-.9-.06-2.27-.15-3.7.75-1.63,1.02-2.96,3.05-4.06,6.19-1.12,3.12-2.09,5.82-3.24,8.89-.12.33.04.7.38.83.33.12.7-.04.83-.38,1.15-3.08,2.12-5.78,3.25-8.91h0c.98-2.82,2.17-4.68,3.52-5.53,1.09-.68,2.11-.61,2.94-.56.05,0,.1,0,.14,0,.8.09,1.63.3,2.42.55-.43.09-.87.22-1.3.41-1.87.83-3.26,2.6-4.27,5.4-.98,2.74-1.26,5.28-.81,7.33.49,2.25,1.83,3.82,3.87,4.56h.01c.17.06.33.11.5.16,1.81.48,3.48.24,4.97-.73Zm-8.09-4.27c-.4-1.82-.14-4.11.76-6.62.88-2.45,2.06-3.97,3.59-4.66.74-.33,1.89-.65,4.19-.22,1.37.59,2.42,1.68,2.97,3.07.63,1.61.57,3.56-.17,5.63-1.06,2.96-2.39,4.97-3.94,5.98-.66.43-1.38.68-2.12.74-.7.06-1.45-.04-2.23-.3-1.62-.59-2.64-1.81-3.04-3.62Zm19.43-.46s.04.01.06.02c2.37.87,3.27,2.83,2.41,5.24-.43,1.21-1.09,2.03-1.97,2.45-.62.3-1.69.54-3.2,0h0c-1.04-.37-1.82-1.04-2.26-1.96-.46-.97-.52-2.2-.16-3.22h0c.47-1.34,1.38-2.01,2.07-2.33.88-.42,1.91-.51,2.8-.27.09.02.17.05.26.08Zm.44-1.21c-.79-.29-1.47-.92-1.83-1.69-.36-.77-.38-1.64-.05-2.52h0c.3-.86.83-1.45,1.58-1.78.71-.31,1.6-.37,2.59-.19.93.49,1.58,1.08,1.92,1.76.35.69.38,1.49.08,2.36-.43,1.15-1.05,1.71-1.5,1.98-.75.45-1.67.48-2.74.1-.02,0-.04-.01-.06-.02Z"/>
        <path d="m48.4,57.21c1.79-1.16,3.29-3.39,4.45-6.63.85-2.37.91-4.63.16-6.54-.3-.77-.73-1.47-1.27-2.07,4.02.78,6.44,1.44,8.02,1.97-.13.04-.26.09-.39.15-1.07.47-1.86,1.34-2.28,2.51-.45,1.2-.42,2.42.09,3.51.15.32.34.63.57.91-.56.07-1.11.23-1.62.47-1.29.61-2.26,1.69-2.74,3.06-.48,1.35-.4,2.92.21,4.2.59,1.24,1.62,2.14,2.99,2.62.19.07.39.13.58.18,1.31.35,2.55.28,3.6-.22,1.2-.57,2.09-1.64,2.63-3.18.56-1.57.53-3.05-.09-4.29-.21-.42-.48-.8-.8-1.14.39-.09.76-.24,1.11-.45.9-.54,1.6-1.45,2.05-2.64h0c.42-1.23.37-2.36-.15-3.38-.12-.23-.25-.45-.41-.66.84.11,1.58.13,2.41,0,.35-.05.6-.38.55-.73s-.38-.6-.73-.55c-1.33.19-2.4-.02-4.46-.48h-.01c-1.48-.74-3.96-1.96-13.66-3.67-.08-.04-.17-.08-.27-.12-1.16-.52-3.58-1.59-5.81-1.84h-.03c-.05,0-.1,0-.16-.01-.9-.06-2.27-.15-3.7.75-1.63,1.02-2.96,3.05-4.06,6.19-1.12,3.12-2.09,5.82-3.24,8.89-.12.33.04.7.38.83.33.12.7-.04.83-.38,1.15-3.08,2.12-5.78,3.25-8.91h0c.98-2.82,2.17-4.68,3.52-5.53,1.09-.68,2.11-.61,2.94-.56.05,0,.1,0,.14,0,.8.09,1.63.3,2.42.55-.43.09-.87.22-1.3.41-1.87.83-3.26,2.6-4.27,5.4-.98,2.74-1.26,5.28-.81,7.33.49,2.25,1.83,3.82,3.87,4.56h.01c.17.06.33.11.5.16,1.81.48,3.48.24,4.97-.73Zm-8.09-4.27c-.4-1.82-.14-4.11.76-6.62.88-2.45,2.06-3.97,3.59-4.66.74-.33,1.89-.65,4.19-.22,1.37.59,2.42,1.68,2.97,3.07.63,1.61.57,3.56-.17,5.63-1.06,2.96-2.39,4.97-3.94,5.98-.66.43-1.38.68-2.12.74-.7.06-1.45-.04-2.23-.3-1.62-.59-2.64-1.81-3.04-3.62Zm19.43-.46s.04.01.06.02c2.37.87,3.27,2.83,2.41,5.24-.43,1.21-1.09,2.03-1.97,2.45-.62.3-1.69.54-3.2,0h0c-1.04-.37-1.82-1.04-2.26-1.96-.46-.97-.52-2.2-.16-3.22h0c.47-1.34,1.38-2.01,2.07-2.33.88-.42,1.91-.51,2.8-.27.09.02.17.05.26.08Zm.44-1.21c-.79-.29-1.47-.92-1.83-1.69-.36-.77-.38-1.64-.05-2.52h0c.3-.86.83-1.45,1.58-1.78.71-.31,1.6-.37,2.59-.19.93.49,1.58,1.08,1.92,1.76.35.69.38,1.49.08,2.36-.43,1.15-1.05,1.71-1.5,1.98-.75.45-1.67.48-2.74.1-.02,0-.04-.01-.06-.02Z"/>
        <path d="m-1.6,57.21c1.79-1.16,3.29-3.39,4.45-6.63.85-2.37.91-4.63.16-6.54-.3-.77-.73-1.47-1.27-2.07,4.02.78,6.44,1.44,8.02,1.97-.13.04-.26.09-.39.15-1.07.47-1.86,1.34-2.28,2.51-.45,1.2-.42,2.42.09,3.51.15.32.34.63.57.91-.56.07-1.11.23-1.62.47-1.29.61-2.26,1.69-2.74,3.06-.48,1.35-.4,2.92.21,4.2.59,1.24,1.62,2.14,2.99,2.62.19.07.39.13.58.18,1.31.35,2.55.28,3.6-.22,1.2-.57,2.09-1.64,2.63-3.18.56-1.57.53-3.05-.09-4.29-.21-.42-.48-.8-.8-1.14.39-.09.76-.24,1.11-.45.9-.54,1.6-1.45,2.05-2.64h0c.42-1.23.37-2.36-.15-3.38-.12-.23-.25-.45-.41-.66.84.11,1.58.13,2.41,0,.35-.05.6-.38.55-.73s-.38-.6-.73-.55c-1.33.19-2.4-.02-4.46-.48h-.01c-1.48-.74-3.96-1.96-13.66-3.67-.08-.04-.17-.08-.27-.12-1.16-.52-3.58-1.59-5.81-1.84h-.03c-.05,0-.1,0-.16-.01-.9-.06-2.27-.15-3.7.75-1.63,1.02-2.96,3.05-4.06,6.19-1.12,3.12-2.09,5.82-3.24,8.89-.12.33.04.7.38.83.33.12.7-.04.83-.38,1.15-3.08,2.12-5.78,3.25-8.91h0c.98-2.82,2.17-4.68,3.52-5.53,1.09-.68,2.11-.61,2.94-.56.05,0,.1,0,.14,0,.8.09,1.63.3,2.42.55-.43.09-.87.22-1.3.41-1.87.83-3.26,2.6-4.27,5.4-.98,2.74-1.26,5.28-.81,7.33.49,2.25,1.83,3.82,3.87,4.56h.01c.17.06.33.11.5.16,1.81.48,3.48.24,4.97-.73Zm-8.09-4.27c-.4-1.82-.14-4.11.76-6.62.88-2.45,2.06-3.97,3.59-4.66.74-.33,1.89-.65,4.19-.22,1.37.59,2.42,1.68,2.97,3.07.63,1.61.57,3.56-.17,5.63-1.06,2.96-2.39,4.97-3.94,5.98-.66.43-1.38.68-2.12.74-.7.06-1.45-.04-2.23-.3-1.62-.59-2.64-1.81-3.04-3.62Zm19.43-.46s.04.01.06.02c2.37.87,3.27,2.83,2.41,5.24-.43,1.21-1.09,2.03-1.97,2.45-.62.3-1.69.54-3.2,0h0c-1.04-.37-1.82-1.04-2.26-1.96-.46-.97-.52-2.2-.16-3.22h0c.47-1.34,1.38-2.01,2.07-2.33.88-.42,1.91-.51,2.8-.27.09.02.17.05.26.08Zm.44-1.21c-.79-.29-1.47-.92-1.83-1.69-.36-.77-.38-1.64-.05-2.52h0c.3-.86.83-1.45,1.58-1.78.71-.31,1.6-.37,2.59-.19.93.49,1.58,1.08,1.92,1.76.35.69.38,1.49.08,2.36-.43,1.15-1.05,1.71-1.5,1.98-.75.45-1.67.48-2.74.1-.02,0-.04-.01-.06-.02Z"/>
        <path d="m73.4,7.21c1.79-1.16,3.29-3.39,4.45-6.63.85-2.37.91-4.63.16-6.54-.3-.77-.73-1.47-1.27-2.07,4.02.78,6.44,1.44,8.02,1.97-.13.04-.26.09-.39.15-1.07.47-1.86,1.34-2.28,2.51-.45,1.2-.42,2.42.09,3.51.15.32.34.63.57.91-.56.07-1.11.23-1.62.47-1.29.61-2.26,1.69-2.74,3.06-.48,1.35-.4,2.92.21,4.2.59,1.24,1.62,2.14,2.99,2.62.19.07.39.13.58.18,1.31.35,2.55.28,3.6-.22,1.2-.57,2.09-1.64,2.63-3.18.56-1.57.53-3.05-.09-4.29-.21-.42-.48-.8-.8-1.14.39-.09.76-.24,1.11-.45.9-.54,1.6-1.45,2.05-2.64h0c.42-1.23.37-2.36-.15-3.38-.12-.23-.25-.45-.41-.66.84.11,1.58.13,2.41,0,.35-.05.6-.38.55-.73s-.38-.6-.73-.55c-1.33.19-2.4-.02-4.46-.48h-.01c-1.48-.74-3.96-1.96-13.66-3.67-.08-.04-.17-.08-.27-.12-1.16-.52-3.58-1.59-5.81-1.84h-.03c-.05,0-.1,0-.16-.01-.9-.06-2.27-.15-3.7.75-1.63,1.02-2.96,3.05-4.06,6.19-1.12,3.12-2.09,5.82-3.24,8.89-.12.33.04.7.38.83.33.12.7-.04.83-.38,1.15-3.08,2.12-5.78,3.25-8.91h0c.98-2.82,2.17-4.68,3.52-5.53,1.09-.68,2.11-.61,2.94-.56.05,0,.1,0,.14,0,.8.09,1.63.3,2.42.55-.43.09-.87.22-1.3.41-1.87.83-3.26,2.6-4.27,5.4-.98,2.74-1.26,5.28-.81,7.33.49,2.25,1.83,3.82,3.87,4.56h.01c.17.06.33.11.5.16,1.81.48,3.48.24,4.97-.73Zm-8.09-4.27c-.4-1.82-.14-4.11.76-6.62.88-2.45,2.06-3.97,3.59-4.66.74-.33,1.89-.65,4.19-.22,1.37.59,2.42,1.68,2.97,3.07.63,1.61.57,3.56-.17,5.63-1.06,2.96-2.39,4.97-3.94,5.98-.66.43-1.38.68-2.12.74-.7.06-1.45-.04-2.23-.3-1.62-.59-2.64-1.81-3.04-3.62Zm19.43-.46s.04.01.06.02c2.37.87,3.27,2.83,2.41,5.24-.43,1.21-1.09,2.03-1.97,2.45-.62.3-1.69.54-3.2,0h0c-1.04-.37-1.82-1.04-2.26-1.96-.46-.97-.52-2.2-.16-3.22h0c.47-1.34,1.38-2.01,2.07-2.33.88-.42,1.91-.51,2.8-.27.09.02.17.05.26.08Zm.44-1.21c-.79-.29-1.47-.92-1.83-1.69-.36-.77-.38-1.64-.05-2.52h0c.3-.86.83-1.45,1.58-1.78.71-.31,1.6-.37,2.59-.19.93.49,1.58,1.08,1.92,1.76.35.69.38,1.49.08,2.36-.43,1.15-1.05,1.71-1.5,1.98-.75.45-1.67.48-2.74.1-.02,0-.04-.01-.06-.02Z"/>
        <path d="m23.4,7.21c1.79-1.16,3.29-3.39,4.45-6.63.85-2.37.91-4.63.16-6.54-.3-.77-.73-1.47-1.27-2.07,4.02.78,6.44,1.44,8.02,1.97-.13.04-.26.09-.39.15-1.07.47-1.86,1.34-2.28,2.51-.45,1.2-.42,2.42.09,3.51.15.32.34.63.57.91-.56.07-1.11.23-1.62.47-1.29.61-2.26,1.69-2.74,3.06-.48,1.35-.4,2.92.21,4.2.59,1.24,1.62,2.14,2.99,2.62.19.07.39.13.58.18,1.31.35,2.55.28,3.6-.22,1.2-.57,2.09-1.64,2.63-3.18.56-1.57.53-3.05-.09-4.29-.21-.42-.48-.8-.8-1.14.39-.09.76-.24,1.11-.45.9-.54,1.6-1.45,2.05-2.64h0c.42-1.23.37-2.36-.15-3.38-.12-.23-.25-.45-.41-.66.84.11,1.58.13,2.41,0,.35-.05.6-.38.55-.73s-.38-.6-.73-.55c-1.33.19-2.4-.02-4.46-.48h-.01c-1.48-.74-3.96-1.96-13.66-3.67-.08-.04-.17-.08-.27-.12-1.16-.52-3.58-1.59-5.81-1.84h-.03c-.05,0-.1,0-.16-.01-.9-.06-2.27-.15-3.7.75-1.63,1.02-2.96,3.05-4.06,6.19-1.12,3.12-2.09,5.82-3.24,8.89-.12.33.04.7.38.83.33.12.7-.04.83-.38,1.15-3.08,2.12-5.78,3.25-8.91h0c.98-2.82,2.17-4.68,3.52-5.53,1.09-.68,2.11-.61,2.94-.56.05,0,.1,0,.14,0,.8.09,1.63.3,2.42.55-.43.09-.87.22-1.3.41-1.87.83-3.26,2.6-4.27,5.4-.98,2.74-1.26,5.28-.81,7.33.49,2.25,1.83,3.82,3.87,4.56h.01c.17.06.33.11.5.16,1.81.48,3.48.24,4.97-.73ZM15.31,2.95c-.4-1.82-.14-4.11.76-6.62.88-2.45,2.06-3.97,3.59-4.66.74-.33,1.89-.65,4.19-.22,1.37.59,2.42,1.68,2.97,3.07.63,1.61.57,3.56-.17,5.63-1.06,2.96-2.39,4.97-3.94,5.98-.66.43-1.38.68-2.12.74-.7.06-1.45-.04-2.23-.3-1.62-.59-2.64-1.81-3.04-3.62Zm19.43-.46s.04.01.06.02c2.37.87,3.27,2.83,2.41,5.24-.43,1.21-1.09,2.03-1.97,2.45-.62.3-1.69.54-3.2,0h0c-1.04-.37-1.82-1.04-2.26-1.96-.46-.97-.52-2.2-.16-3.22h0c.47-1.34,1.38-2.01,2.07-2.33.88-.42,1.91-.51,2.8-.27.09.02.17.05.26.08Zm.44-1.21c-.79-.29-1.47-.92-1.83-1.69-.36-.77-.38-1.64-.05-2.52h0c.3-.86.83-1.45,1.58-1.78.71-.31,1.6-.37,2.59-.19.93.49,1.58,1.08,1.92,1.76.35.69.38,1.49.08,2.36-.43,1.15-1.05,1.71-1.5,1.98-.75.45-1.67.48-2.74.1-.02,0-.04-.01-.06-.02Z"/>
      </g>
    </pattern>
  </defs>
  <rect fill="url(#pat)" class="cls-2" width="100" height="100"/>
</svg>
