<svg width="13" height="14" viewBox="0 0 13 14" fill="none" xmlns="http://www.w3.org/2000/svg">
    <path d="M7.19395 5.70028C7.18241 5.7011 7.17087 5.70319 7.15934 5.70547C7.13644 5.71012 7.11382 5.71696 7.09137 5.72763C7.06892 5.7383 7.04691 5.75225 7.02508 5.76894C7.00308 5.78553 6.98187 5.80568 6.96048 5.8283L6.94859 5.84106C6.94185 5.84744 6.93501 5.85346 6.92818 5.8603C6.90848 5.87991 6.89074 5.8996 6.87432 5.91911L2.11791 10.9581C2.09652 10.9808 2.07745 11.0033 2.06183 11.0263C2.0463 11.0493 2.03352 11.0722 2.02385 11.0956C2.01418 11.1189 2.00726 11.143 2.00344 11.1666C1.99963 11.1903 1.99918 11.2142 2.00113 11.2382C2.00318 11.2622 2.00797 11.286 2.01586 11.3104C2.02376 11.3347 2.0345 11.3595 2.04816 11.3843C2.06165 11.4092 2.07833 11.4333 2.09803 11.4583C2.11773 11.4833 2.14001 11.5092 2.16547 11.5346C2.19138 11.5604 2.21783 11.5828 2.24312 11.6027C2.26849 11.6225 2.29307 11.6397 2.31792 11.6534C2.34277 11.6671 2.36735 11.6772 2.39157 11.6849C2.4158 11.6925 2.43984 11.6978 2.46354 11.6995C2.48723 11.701 2.51065 11.6993 2.53381 11.6948C2.55689 11.6903 2.57925 11.6827 2.60179 11.6721C2.62432 11.6615 2.64669 11.6479 2.66869 11.6313C2.6907 11.6147 2.71244 11.5952 2.73382 11.5725L7.22846 6.81124L10.2657 9.96252C10.2874 9.98495 10.3089 10.0047 10.3308 10.0213C10.3528 10.0379 10.3751 10.0515 10.3977 10.0621C10.4203 10.0727 10.4432 10.0809 10.4663 10.0853C10.4894 10.0898 10.5129 10.091 10.5366 10.0894C10.5603 10.0878 10.5838 10.0825 10.6081 10.0748C10.6323 10.0671 10.6569 10.057 10.6817 10.0433C10.7065 10.0297 10.7311 10.013 10.7565 9.99325C10.7818 9.97337 10.8082 9.95039 10.8341 9.92449C10.8596 9.89915 10.8819 9.87371 10.9016 9.84881C10.9213 9.82383 10.938 9.79921 10.9515 9.77432C10.9651 9.74951 10.9759 9.72471 10.9838 9.70037C10.9917 9.67602 10.9971 9.65222 10.999 9.62815C11.001 9.60408 11 9.58019 10.9962 9.55657C10.9924 9.53286 10.9854 9.50943 10.9758 9.48609C10.9661 9.46275 10.9533 9.43922 10.9378 9.41624C10.9222 9.39326 10.9039 9.37056 10.8822 9.34813L7.53451 5.8738C7.53008 5.86924 7.52662 5.86495 7.52209 5.86039C7.52005 5.85839 7.51792 5.85711 7.51588 5.85519L7.49041 5.82839C7.46876 5.80596 7.4472 5.78562 7.42528 5.76903C7.40336 5.75234 7.38144 5.73839 7.35899 5.72772C7.33654 5.71705 7.31392 5.71031 7.29102 5.70556C7.27052 5.70137 7.25012 5.69973 7.22926 5.70037C7.22678 5.70018 7.22438 5.70046 7.2219 5.70037C7.21267 5.70009 7.20309 5.69964 7.19395 5.70028Z"
          fill="#9747FF"/>
    <g filter="url(#filter0_f_1170_1855)">
        <path d="M7.19395 5.70028C7.18241 5.7011 7.17087 5.70319 7.15934 5.70547C7.13644 5.71012 7.11382 5.71696 7.09137 5.72763C7.06892 5.7383 7.04691 5.75225 7.02508 5.76894C7.00308 5.78553 6.98187 5.80568 6.96048 5.8283L6.94859 5.84106C6.94185 5.84744 6.93501 5.85346 6.92818 5.8603C6.90848 5.87991 6.89074 5.8996 6.87432 5.91911L2.11791 10.9581C2.09652 10.9808 2.07745 11.0033 2.06183 11.0263C2.0463 11.0493 2.03352 11.0722 2.02385 11.0956C2.01418 11.1189 2.00726 11.143 2.00344 11.1666C1.99963 11.1903 1.99918 11.2142 2.00113 11.2382C2.00318 11.2622 2.00797 11.286 2.01586 11.3104C2.02376 11.3347 2.0345 11.3595 2.04816 11.3843C2.06165 11.4092 2.07833 11.4333 2.09803 11.4583C2.11773 11.4833 2.14001 11.5092 2.16547 11.5346C2.19138 11.5604 2.21783 11.5828 2.24312 11.6027C2.26849 11.6225 2.29307 11.6397 2.31792 11.6534C2.34277 11.6671 2.36735 11.6772 2.39157 11.6849C2.4158 11.6925 2.43984 11.6978 2.46354 11.6995C2.48723 11.701 2.51065 11.6993 2.53381 11.6948C2.55689 11.6903 2.57925 11.6827 2.60179 11.6721C2.62432 11.6615 2.64669 11.6479 2.66869 11.6313C2.6907 11.6147 2.71244 11.5952 2.73382 11.5725L7.22846 6.81124L10.2657 9.96252C10.2874 9.98495 10.3089 10.0047 10.3308 10.0213C10.3528 10.0379 10.3751 10.0515 10.3977 10.0621C10.4203 10.0727 10.4432 10.0809 10.4663 10.0853C10.4894 10.0898 10.5129 10.091 10.5366 10.0894C10.5603 10.0878 10.5838 10.0825 10.6081 10.0748C10.6323 10.0671 10.6569 10.057 10.6817 10.0433C10.7065 10.0297 10.7311 10.013 10.7565 9.99325C10.7818 9.97337 10.8082 9.95039 10.8341 9.92449C10.8596 9.89915 10.8819 9.87371 10.9016 9.84881C10.9213 9.82383 10.938 9.79921 10.9515 9.77432C10.9651 9.74951 10.9759 9.72471 10.9838 9.70037C10.9917 9.67602 10.9971 9.65222 10.999 9.62815C11.001 9.60408 11 9.58019 10.9962 9.55657C10.9924 9.53286 10.9854 9.50943 10.9758 9.48609C10.9661 9.46275 10.9533 9.43922 10.9378 9.41624C10.9222 9.39326 10.9039 9.37056 10.8822 9.34813L7.53451 5.8738C7.53008 5.86924 7.52662 5.86495 7.52209 5.86039C7.52005 5.85839 7.51792 5.85711 7.51588 5.85519L7.49041 5.82839C7.46876 5.80596 7.4472 5.78562 7.42528 5.76903C7.40336 5.75234 7.38144 5.73839 7.35899 5.72772C7.33654 5.71705 7.31392 5.71031 7.29102 5.70556C7.27052 5.70137 7.25012 5.69973 7.22926 5.70037C7.22678 5.70018 7.22438 5.70046 7.2219 5.70037C7.21267 5.70009 7.20309 5.69964 7.19395 5.70028Z"
              fill="url(#paint0_linear_1170_1855)"/>
    </g>
    <path d="M2.4922 7.54588L2.29959 7.45766C1.8677 7.25985 1.35722 7.44961 1.1594 7.8815L1.07118 8.07411C0.873368 8.506 1.06313 9.01648 1.49502 9.21429L1.68763 9.30251C2.11952 9.50033 2.63 9.31057 2.82782 8.87868L2.91603 8.68607C3.11385 8.25418 2.92409 7.7437 2.4922 7.54588Z"
          fill="#18B2DE"/>
    <path d="M2.00814 6.47171L2.22971 6.63885C2.72416 7.01184 3.42737 6.91337 3.80036 6.41892L3.96669 6.19841C4.33968 5.70395 4.24121 5.00075 3.74675 4.62776L3.52519 4.46062C3.03073 4.08763 2.32752 4.1861 1.95454 4.68056L1.7882 4.90106C1.41521 5.39552 1.51368 6.09873 2.00814 6.47171Z"
          fill="#A2FF2C"/>
    <path d="M6.63982 4.42053L6.95677 4.17112C7.6675 3.61183 7.79026 2.58229 7.23098 1.87157L6.98157 1.55461C6.42229 0.84389 5.39274 0.721122 4.68202 1.2804L4.36506 1.52982C3.65434 2.0891 3.53157 3.11865 4.09085 3.82937L4.34027 4.14632C4.89955 4.85705 5.92909 4.97982 6.63982 4.42053Z"
          fill="#FB37FF"/>
    <defs>
        <filter id="filter0_f_1170_1855" x="0" y="3.69995" width="13" height="10.0001" filterUnits="userSpaceOnUse"
                color-interpolation-filters="sRGB">
            <feFlood flood-opacity="0" result="BackgroundImageFix"/>
            <feBlend mode="normal" in="SourceGraphic" in2="BackgroundImageFix" result="shape"/>
            <feGaussianBlur stdDeviation="1" result="effect1_foregroundBlur_1170_1855"/>
        </filter>
        <linearGradient id="paint0_linear_1170_1855" x1="1.48266" y1="10.2113" x2="6.49585" y2="5.3326"
                        gradientUnits="userSpaceOnUse">
            <stop stop-color="#18B2DE"/>
            <stop offset="0.520833" stop-color="#A2FF2C"/>
            <stop offset="1" stop-color="#FB37FF"/>
        </linearGradient>
    </defs>
</svg>
