<?xml version="1.0" encoding="utf-8"?>
<svg version="1.1" xmlns="http://www.w3.org/2000/svg" x="0px" y="0px"
	 viewBox="64 64 384 384" xml:space="preserve">
<style type="text/css">path{fill-rule:evenodd;clip-rule:evenodd;}</style>
<path d="M66.8,330.5c-0.5,0-0.9-0.2-1.2-0.5c-0.4-0.4-0.6-0.8-0.6-1.3v-44.6c0-0.5,0.2-0.9,0.6-1.2c0.4-0.4,0.8-0.6,1.2-0.6h11.8c0.5,0,0.9,0.2,1.2,0.6c0.4,0.3,0.6,0.7,0.6,1.2v44.6c0,0.5-0.2,0.9-0.6,1.3c-0.3,0.3-0.7,0.5-1.2,0.5H66.8z"/>
<path d="M86.9,330.5c-0.5,0-0.9-0.2-1.2-0.5c-0.4-0.4-0.6-0.8-0.6-1.3v-44.6c0-0.5,0.2-0.9,0.6-1.2c0.4-0.4,0.8-0.6,1.2-0.6h9.2c0.8,0,1.4,0.2,1.8,0.6c0.4,0.4,0.6,0.6,0.8,0.8l14.2,22.8v-22.5c0-0.5,0.2-0.9,0.6-1.2c0.4-0.4,0.8-0.6,1.2-0.6h10.4c0.5,0,0.9,0.2,1.2,0.6c0.4,0.3,0.6,0.7,0.6,1.2v44.6c0,0.5-0.2,0.9-0.6,1.3c-0.3,0.3-0.7,0.5-1.2,0.5H116c-0.9,0-1.5-0.2-1.9-0.6c-0.4-0.4-0.6-0.7-0.8-0.9l-14.2-21.5v21.1c0,0.5-0.2,0.9-0.6,1.3c-0.3,0.3-0.7,0.5-1.2,0.5H86.9z"/>
<path d="M133.6,330.5c-0.5,0-0.9-0.2-1.2-0.5c-0.4-0.4-0.6-0.8-0.6-1.3v-44.6c0-0.5,0.2-0.9,0.6-1.2c0.4-0.4,0.8-0.6,1.2-0.6h9.2c0.8,0,1.4,0.2,1.8,0.6c0.4,0.4,0.6,0.6,0.8,0.8l14.2,22.8v-22.5c0-0.5,0.2-0.9,0.6-1.2c0.4-0.4,0.8-0.6,1.2-0.6h10.4c0.5,0,0.9,0.2,1.2,0.6c0.4,0.3,0.6,0.7,0.6,1.2v44.6c0,0.5-0.2,0.9-0.6,1.3c-0.3,0.3-0.7,0.5-1.2,0.5h-9.1c-0.9,0-1.5-0.2-1.9-0.6c-0.4-0.4-0.6-0.7-0.8-0.9l-14.2-21.5v21.1c0,0.5-0.2,0.9-0.6,1.3c-0.3,0.3-0.7,0.5-1.2,0.5H133.6z"/>
<path d="M199.4,331.2c-4.4,0-8.3-0.7-11.5-2.1c-3.2-1.4-5.8-3.4-7.7-6.2c-1.8-2.8-2.8-6.3-3-10.4c0-1.9-0.1-3.9-0.1-5.9c0-2.1,0-4.1,0.1-6.1c0.1-4.1,1.1-7.5,3-10.3c1.9-2.8,4.5-4.9,7.7-6.3c3.3-1.5,7.1-2.2,11.5-2.2c4.3,0,8.1,0.7,11.4,2.2c3.3,1.4,5.9,3.5,7.7,6.3c1.9,2.8,2.9,6.2,3,10.3c0.1,2,0.1,4.1,0.1,6.1c0,2,0,4-0.1,5.9c-0.1,4.1-1.2,7.6-3,10.4c-1.8,2.8-4.4,4.8-7.7,6.2C207.6,330.5,203.8,331.2,199.4,331.2z M199.4,319.5c1.9,0,3.5-0.6,4.8-1.7c1.2-1.2,1.9-3.1,1.9-5.6c0.1-2,0.1-3.9,0.1-5.7c0-1.9,0-3.8-0.1-5.7c0-1.7-0.4-3.1-1-4.2c-0.6-1.1-1.3-1.9-2.4-2.4c-1-0.5-2.1-0.8-3.4-0.8c-1.3,0-2.4,0.3-3.5,0.8c-1,0.5-1.8,1.3-2.4,2.4c-0.6,1.1-0.9,2.5-0.9,4.2c0,1.9-0.1,3.8-0.1,5.7c0,1.8,0,3.7,0.1,5.7c0.1,2.6,0.7,4.5,1.9,5.6C195.8,318.9,197.5,319.5,199.4,319.5z"/>
<path d="M179.1,391.3c-0.5,0-0.9-0.2-1.2-0.5c-0.4-0.3-0.6-0.8-0.6-1.3v-44.6c0-0.5,0.2-0.9,0.6-1.2c0.4-0.4,0.8-0.6,1.2-0.6h11.3c0.5,0,0.9,0.2,1.2,0.6c0.4,0.3,0.6,0.7,0.6,1.2v15.6h14.1v-15.6c0-0.5,0.2-0.9,0.5-1.2c0.4-0.4,0.8-0.6,1.3-0.6h11.3c0.5,0,0.9,0.2,1.2,0.6c0.4,0.3,0.6,0.7,0.6,1.2v44.6c0,0.5-0.2,0.9-0.6,1.3c-0.3,0.3-0.7,0.5-1.2,0.5h-11.3c-0.5,0-0.9-0.2-1.3-0.5c-0.3-0.4-0.5-0.8-0.5-1.3v-16h-14.1v16c0,0.5-0.2,0.9-0.6,1.3c-0.3,0.3-0.7,0.5-1.2,0.5H179.1z"/>
<path d="M225.9,391.3c-0.4,0-0.8-0.1-1.1-0.4c-0.3-0.3-0.4-0.7-0.4-1.1c0-0.2,0-0.3,0.1-0.5l15.8-44.1c0.1-0.5,0.4-1,0.9-1.4c0.5-0.5,1.2-0.7,2-0.7h12.7c0.9,0,1.5,0.2,2,0.7c0.5,0.5,0.8,0.9,0.9,1.4l15.8,44.1c0,0.1,0.1,0.3,0.1,0.5c0,0.4-0.2,0.8-0.5,1.1c-0.3,0.3-0.6,0.4-1,0.4h-10.6c-0.8,0-1.4-0.2-1.7-0.6c-0.4-0.4-0.6-0.7-0.8-1l-2.1-5.8h-16.7l-2.1,5.8c-0.1,0.3-0.4,0.7-0.8,1c-0.3,0.4-0.9,0.6-1.7,0.6H225.9z M244.4,372.3h10.3l-5.2-15.5L244.4,372.3z"/>
<path d="M296.3,392c-4.8,0-8.9-0.7-12.1-2c-3.2-1.4-5.6-3.1-7.2-5.3c-1.6-2.2-2.4-4.5-2.5-7c0-0.4,0.1-0.8,0.4-1c0.3-0.3,0.6-0.4,1-0.4h11c0.6,0,1.2,0.1,1.5,0.3c0.4,0.2,0.8,0.5,1.2,0.8c0.4,0.5,0.9,1,1.5,1.4c0.6,0.4,1.3,0.8,2.1,1c0.9,0.2,1.9,0.3,3,0.3c2.1,0,3.8-0.3,4.9-0.8c1.2-0.6,1.7-1.4,1.7-2.4c0-0.8-0.3-1.4-1-1.9c-0.6-0.5-1.6-1-3.1-1.4c-1.5-0.4-3.5-0.8-6-1.3c-3.6-0.6-6.6-1.5-9.2-2.6c-2.6-1.2-4.6-2.8-5.9-4.8c-1.3-2-2-4.5-2-7.4c0-3,0.8-5.6,2.5-7.9c1.7-2.3,4.1-4.1,7.1-5.4c3-1.3,6.6-1.9,10.6-1.9c3.3,0,6.2,0.4,8.8,1.3c2.6,0.9,4.7,2,6.5,3.4c1.8,1.4,3.1,2.9,4,4.5c0.9,1.6,1.4,3.1,1.5,4.6c0,0.4-0.2,0.8-0.5,1.1c-0.3,0.3-0.6,0.4-1,0.4h-11.5c-0.6,0-1-0.1-1.5-0.3c-0.4-0.2-0.7-0.5-1-0.9c-0.2-0.6-0.8-1.2-1.7-1.7c-0.9-0.5-2.1-0.8-3.5-0.8c-1.6,0-2.8,0.3-3.6,0.8c-0.8,0.5-1.2,1.3-1.2,2.3c0,0.7,0.3,1.3,0.8,1.8c0.5,0.5,1.4,1,2.7,1.4c1.3,0.4,3.1,0.8,5.4,1.2c4.4,0.6,7.9,1.6,10.6,2.8c2.7,1.2,4.7,2.8,5.9,4.7c1.2,1.9,1.9,4.3,1.9,7.2c0,3.3-0.9,6.1-2.8,8.4c-1.9,2.3-4.5,4.2-7.8,5.4C304.3,391.4,300.5,392,296.3,392z"/>
<path d="M341.9,392c-4.8,0-8.9-0.7-12.1-2c-3.2-1.4-5.6-3.1-7.2-5.3c-1.6-2.2-2.4-4.5-2.5-7c0-0.4,0.1-0.8,0.4-1c0.3-0.3,0.6-0.4,1-0.4h11c0.6,0,1.2,0.1,1.5,0.3c0.4,0.2,0.8,0.5,1.2,0.8c0.4,0.5,0.9,1,1.5,1.4c0.6,0.4,1.3,0.8,2.1,1c0.9,0.2,1.9,0.3,3,0.3c2.1,0,3.8-0.3,4.9-0.8c1.2-0.6,1.7-1.4,1.7-2.4c0-0.8-0.3-1.4-1-1.9c-0.6-0.5-1.6-1-3.1-1.4c-1.5-0.4-3.5-0.8-6-1.3c-3.5-0.6-6.6-1.5-9.2-2.6c-2.6-1.2-4.6-2.8-5.9-4.8c-1.3-2-2-4.5-2-7.4c0-3,0.8-5.6,2.5-7.9c1.7-2.3,4.1-4.1,7.1-5.4c3-1.3,6.6-1.9,10.6-1.9c3.3,0,6.2,0.4,8.8,1.3c2.6,0.9,4.7,2,6.5,3.4c1.8,1.4,3.1,2.9,4,4.5c0.9,1.6,1.4,3.1,1.5,4.6c0,0.4-0.2,0.8-0.5,1.1c-0.3,0.3-0.6,0.4-1,0.4h-11.5c-0.6,0-1-0.1-1.5-0.3c-0.4-0.2-0.7-0.5-1-0.9c-0.2-0.6-0.8-1.2-1.7-1.7c-0.9-0.5-2.1-0.8-3.5-0.8c-1.6,0-2.8,0.3-3.6,0.8c-0.8,0.5-1.2,1.3-1.2,2.3c0,0.7,0.3,1.3,0.8,1.8c0.5,0.5,1.4,1,2.7,1.4c1.3,0.4,3.1,0.8,5.4,1.2c4.4,0.6,7.9,1.6,10.6,2.8c2.7,1.2,4.7,2.8,5.9,4.7c1.2,1.9,1.9,4.3,1.9,7.2c0,3.3-0.9,6.1-2.8,8.4c-1.9,2.3-4.5,4.2-7.8,5.4C349.9,391.4,346.1,392,341.9,392z"/>
<path d="M370.2,391.3c-0.5,0-0.9-0.2-1.2-0.5c-0.4-0.4-0.6-0.8-0.6-1.3v-44.6c0-0.5,0.2-0.9,0.6-1.2c0.4-0.4,0.8-0.6,1.2-0.6h11.5c0.5,0,0.9,0.2,1.3,0.6c0.4,0.3,0.6,0.7,0.6,1.2V379h20c0.5,0,0.9,0.2,1.3,0.6c0.4,0.3,0.6,0.7,0.6,1.2v8.7c0,0.5-0.2,0.9-0.6,1.3c-0.4,0.3-0.8,0.5-1.3,0.5H370.2z"/>
<path d="M411,391.3c-0.5,0-0.9-0.2-1.2-0.5c-0.4-0.4-0.6-0.8-0.6-1.3v-44.6c0-0.5,0.2-0.9,0.6-1.2c0.4-0.4,0.8-0.6,1.2-0.6h33.9c0.5,0,0.9,0.2,1.3,0.6c0.4,0.3,0.6,0.7,0.6,1.2v8.1c0,0.5-0.2,0.9-0.6,1.2c-0.4,0.4-0.8,0.6-1.3,0.6h-21.4v6.8h19.8c0.5,0,0.9,0.2,1.3,0.6c0.4,0.3,0.6,0.7,0.6,1.2v7.4c0,0.5-0.2,0.9-0.6,1.3c-0.4,0.3-0.8,0.5-1.3,0.5h-19.8v7h21.9c0.5,0,0.9,0.2,1.3,0.6c0.4,0.4,0.6,0.8,0.6,1.3v8.1c0,0.5-0.2,0.9-0.6,1.3c-0.4,0.3-0.8,0.5-1.3,0.5H411z"/>
<path d="M64,271c0-3.4,2.7-6.1,6.1-6.1h165.2c3.4,0,6.1,2.7,6.1,6.1c0,3.4-2.7,6.1-6.1,6.1H70.1C66.7,277.1,64,274.3,64,271z"/>
<path d="M236.1,264.9c3.4,0,6.1,2.7,6.1,6.1v60c0,3.4-2.7,6.1-6.1,6.1s-6.1-2.7-6.1-6.1v-60C230,267.6,232.7,264.9,236.1,264.9z"/>
<path d="M230,331.7c0-3.4,2.7-6.1,6.1-6.1h205.8c3.4,0,6.1,2.7,6.1,6.1c0,3.4-2.7,6.1-6.1,6.1H236.1C232.7,337.8,230,335.1,230,331.7z"/>
<path d="M65.9,274.5c2.2,2.5,6,2.8,8.6,0.7l170.8-145.9c2.6-2.2,2.9-6,0.7-8.6c-2.2-2.5-6-2.8-8.6-0.7L66.5,266C64,268.1,63.7,272,65.9,274.5z"/>
<path d="M237.1,120.3c-2.4,2.3-2.5,6.2-0.2,8.6l199.3,205.8c2.3,2.4,6.2,2.5,8.6,0.2c2.4-2.3,2.5-6.2,0.2-8.6L245.7,120.5C243.4,118.1,239.5,118,237.1,120.3z"/>
<path d="M238.5,239.8c15.5,0,28.1-12.5,28.1-28s-12.6-28-28.1-28s-28.1,12.5-28.1,28S223,239.8,238.5,239.8zM238.5,251.9c22.2,0,40.3-18,40.3-40.1c0-22.2-18-40.1-40.3-40.1s-40.3,18-40.3,40.1C198.2,234,216.3,251.9,238.5,251.9z"/>
<path d="M232.4,244.6v-66.4h12.2v66.4H232.4z"/>
<path d="M275.5,218.7h-74.8v-12.2h74.8V218.7z"/>
<path d="M342.6,234.1c-3.4,0-6.1-2.7-6.1-6.1v-50.2c0-3.4,2.7-6.1,6.1-6.1c3.4,0,6.1,2.7,6.1,6.1V228C348.7,231.4,346,234.1,342.6,234.1z"/>
<path d="M133.6,330.5c-0.5,0-0.9-0.2-1.2-0.5c-0.4-0.4-0.6-0.8-0.6-1.3v-44.6c0-0.5,0.2-0.9,0.6-1.2c0.4-0.4,0.8-0.6,1.2-0.6h9.2c0.8,0,1.4,0.2,1.8,0.6c0.4,0.4,0.6,0.6,0.8,0.8l14.2,22.8v-22.5c0-0.5,0.2-0.9,0.6-1.2c0.4-0.4,0.8-0.6,1.2-0.6h10.4c0.5,0,0.9,0.2,1.2,0.6c0.4,0.3,0.6,0.7,0.6,1.2v44.6c0,0.5-0.2,0.9-0.6,1.3c-0.3,0.3-0.7,0.5-1.2,0.5h-9.1c-0.9,0-1.5-0.2-1.9-0.6c-0.4-0.4-0.6-0.7-0.8-0.9l-14.2-21.5v21.1c0,0.5-0.2,0.9-0.6,1.3c-0.3,0.3-0.7,0.5-1.2,0.5H133.6z"/>
<path d="M199.4,331.2c-4.4,0-8.3-0.7-11.5-2.1c-3.2-1.4-5.8-3.4-7.7-6.2c-1.8-2.8-2.8-6.3-3-10.4c0-1.9-0.1-3.9-0.1-5.9c0-2.1,0-4.1,0.1-6.1c0.1-4.1,1.1-7.5,3-10.3c1.9-2.8,4.5-4.9,7.7-6.3c3.3-1.5,7.1-2.2,11.5-2.2c4.3,0,8.1,0.7,11.4,2.2c3.3,1.4,5.9,3.5,7.7,6.3c1.9,2.8,2.9,6.2,3,10.3c0.1,2,0.1,4.1,0.1,6.1c0,2,0,4-0.1,5.9c-0.1,4.1-1.2,7.6-3,10.4c-1.8,2.8-4.4,4.8-7.7,6.2C207.6,330.5,203.8,331.2,199.4,331.2zM199.4,319.5c1.9,0,3.5-0.6,4.8-1.7c1.2-1.2,1.9-3.1,1.9-5.6c0.1-2,0.1-3.9,0.1-5.7c0-1.9,0-3.8-0.1-5.7c0-1.7-0.4-3.1-1-4.2c-0.6-1.1-1.3-1.9-2.4-2.4c-1-0.5-2.1-0.8-3.4-0.8c-1.3,0-2.4,0.3-3.5,0.8c-1,0.5-1.8,1.3-2.4,2.4c-0.6,1.1-0.9,2.5-0.9,4.2c0,1.9-0.1,3.8-0.1,5.7c0,1.8,0,3.7,0.1,5.7c0.1,2.6,0.7,4.5,1.9,5.6C195.8,318.9,197.5,319.5,199.4,319.5z"/>
</svg>
