<?xml version="1.0" encoding="utf-8"?>
<svg version="1.1" xmlns="http://www.w3.org/2000/svg" viewBox="0 0 12.7 12.7" fill="#9747ff">
    <path d="m7.9363 5.8528c-.013.0009-.026.0032-.039.0057-.0258.0051-.0513.0126-.0766.0243-.0253.0117-.0501.027-.0747.0453-.0248.0182-.0487.0403-.0728.0651l-.0134.014c-.0076.007-.0153.0136-.023.0211-.0222.0215-.0422.0431-.0607.0645l-5.3602 5.5263c-.0241.0249-.0456.0495-.0632.0747-.0175.0253-.0319.0504-.0428.076-.0109.0256-.0187.052-.023.0779-.0043.026-.0048.0522-.0026.0785.0023.0264.0077.0525.0166.0792.0089.0267.021.0539.0364.0811.0152.0273.034.0537.0562.0811.0222.0274.0473.0558.076.0837.0292.0283.059.0529.0875.0747.0286.0217.0563.0406.0843.0556.028.015.0557.0261.083.0345.0273.0084.0544.0142.0811.016.0267.0017.0531-.0002.0792-.0051.026-.0049.0512-.0133.0766-.0249.0254-.0116.0506-.0265.0754-.0447.0248-.0182.0493-.0396.0734-.0645l5.0652-5.2217 3.4228 3.456c.0244.0246.0487.0463.0734.0645.0248.0182.0499.0331.0754.0447.0254.0116.0512.0206.0773.0255.026.0049.0525.0062.0792.0044.0267-.0017.0532-.0075.0805-.016.0273-.0084.0551-.0195.083-.0345.028-.0149.0557-.0332.0843-.0549.0285-.0218.0583-.047.0875-.0754.0287-.0278.0538-.0557.076-.083.0222-.0274.041-.0544.0562-.0817.0154-.0272.0275-.0544.0364-.0811.0089-.0267.015-.0528.0172-.0792.0022-.0264.0011-.0526-.0032-.0785-.0043-.026-.0121-.0517-.023-.0773-.0109-.0256-.0253-.0514-.0428-.0766-.0176-.0252-.0382-.0501-.0626-.0747l-3.7727-3.8103c-.005-.005-.0089-.0097-.014-.0147-.0023-.0022-.0047-.0036-.007-.0057l-.0287-.0294c-.0244-.0246-.0487-.0469-.0734-.0651-.0247-.0183-.0494-.0336-.0747-.0453-.0253-.0117-.0508-.0191-.0766-.0243-.0231-.0046-.0461-.0064-.0696-.0057-.0028-.0002-.0055.0001-.0083 0-.0104-.0003-.021-.0007-.0313 0z"/>
    <rect x="4.3899755" y="5.7535653" width="2.1186614" height="2.1186604" transform="rotate(24.608701)" ry="0.94318014"/>
    <rect x="-7.0735507" y="-3.8013091" width="2.7637877" height="2.7623277" transform="rotate(-142.971283)" ry="1.2297262"/>
    <rect x="-5.3569827" y="-7.6989708" width="4.0335569" height="4.0335555" transform="rotate(141.80015)" ry="1.7956483"/>
</svg>
