<svg width="108" height="108" viewBox="0 0 108 108" fill="none" xmlns="http://www.w3.org/2000/svg">
    <g clip-path="url(#clip0_1167_1780)">
        <path d="M48.1511 27.6803C48.0618 27.6863 47.9717 27.7024 47.8833 27.7194C47.7055 27.7543 47.5303 27.8062 47.356 27.8861C47.1817 27.9669 47.0116 28.0724 46.8415 28.1982C46.6715 28.3241 46.5065 28.4754 46.3406 28.6464L46.248 28.7433C46.1952 28.7909 46.1425 28.8369 46.0898 28.8887C45.9367 29.0367 45.7998 29.1855 45.6722 29.3326L8.78471 67.3631C8.61888 67.534 8.47092 67.7041 8.34931 67.8776C8.22855 68.0511 8.12991 68.2245 8.05507 68.4006C7.98024 68.5766 7.92666 68.7577 7.8969 68.9363C7.86714 69.1149 7.86374 69.2952 7.87904 69.4772C7.89435 69.6592 7.93262 69.8377 7.993 70.0223C8.05422 70.206 8.13756 70.393 8.24386 70.5801C8.34846 70.7681 8.47772 70.9501 8.63079 71.138C8.78301 71.3259 8.95649 71.5224 9.15378 71.7137C9.35448 71.9084 9.55942 72.0777 9.75586 72.2282C9.9523 72.377 10.1428 72.508 10.3358 72.6109C10.528 72.7138 10.7194 72.7903 10.9073 72.8481C11.0952 72.906 11.2815 72.9459 11.4652 72.9578C11.6488 72.9697 11.8308 72.957 12.0103 72.923C12.1897 72.889 12.3632 72.8311 12.5375 72.7512C12.7127 72.6713 12.8853 72.5692 13.0562 72.4433C13.2263 72.3175 13.3955 72.1704 13.5614 71.9994L48.419 36.0652L71.9741 59.8482C72.1416 60.0174 72.3091 60.1662 72.4792 60.2921C72.6501 60.4179 72.8228 60.52 72.9979 60.5999C73.1723 60.6799 73.3509 60.7419 73.5294 60.7759C73.7089 60.81 73.8909 60.8185 74.0745 60.8066C74.2582 60.7947 74.4402 60.7547 74.6281 60.6969C74.8161 60.639 75.0074 60.5625 75.1996 60.4596C75.3926 60.3567 75.5831 60.2308 75.7796 60.082C75.976 59.9324 76.181 59.7589 76.3817 59.5633C76.5789 59.3719 76.7524 59.1806 76.9046 58.9918C77.0577 58.8039 77.1861 58.6176 77.2916 58.4297C77.3979 58.2426 77.4812 58.0555 77.5424 57.8719C77.6037 57.6882 77.6453 57.5087 77.6615 57.3267C77.6768 57.1456 77.6692 56.9653 77.6394 56.7859C77.6096 56.6073 77.5561 56.4304 77.4812 56.2544C77.4064 56.0784 77.3077 55.9006 77.187 55.7272C77.0662 55.5537 76.9242 55.3827 76.7567 55.2127L50.7942 28.9908C50.7601 28.9568 50.7329 28.9236 50.6972 28.8896C50.6811 28.8743 50.6649 28.8649 50.6487 28.8505L50.4506 28.6481C50.2831 28.4788 50.1155 28.3258 49.9455 28.1999C49.7754 28.0741 49.6053 27.9686 49.431 27.8878C49.2566 27.807 49.0815 27.756 48.9037 27.7211C48.7447 27.6897 48.5865 27.6769 48.425 27.682C48.4063 27.6812 48.3867 27.6829 48.368 27.682C48.2966 27.6795 48.2217 27.6752 48.1511 27.6803Z"
              fill="#9747FF"/>
        <path d="M26.1681 35.159L25.2212 34.7253C23.0978 33.7527 20.5881 34.6856 19.6155 36.809L19.1818 37.7559C18.2092 39.8793 19.1422 42.3891 21.2656 43.3616L22.2125 43.7953C24.3359 44.7679 26.8456 43.835 27.8182 41.7116L28.2519 40.7646C29.2244 38.6413 28.2915 36.1315 26.1681 35.159Z"
              fill="#9747FF"/>
        <path d="M23.6589 29.7784L24.7482 30.6001C27.1792 32.4339 30.6365 31.9498 32.4703 29.5188L33.288 28.4347C35.1218 26.0037 34.6377 22.5465 32.2067 20.7127L31.1174 19.891C28.6864 18.0572 25.2292 18.5413 23.3954 20.9723L22.5776 22.0564C20.7438 24.4874 21.2279 27.9446 23.6589 29.7784Z"
              fill="#9747FF"/>
        <path d="M46.5602 19.7934L48.1184 18.5671C51.6127 15.8174 52.2163 10.7557 49.4666 7.2615L48.2403 5.70323C45.4907 2.20899 40.429 1.60541 36.9347 4.35509L35.3765 5.58133C31.8822 8.331 31.2786 13.3927 34.0283 16.8869L35.2545 18.4452C38.0042 21.9394 43.0659 22.543 46.5602 19.7934Z"
              fill="#9747FF"/>
        <path d="M23.5141 47.3312C23.7939 47.3312 24.0601 47.3448 24.305 47.3746C24.5499 47.4043 24.7761 47.4503 24.9862 47.5098C25.1962 47.5693 25.3867 47.6433 25.5619 47.7326C25.7371 47.8219 25.8969 47.9282 26.0364 48.0472C26.1767 48.1663 26.3009 48.2998 26.4055 48.4495C26.5101 48.5983 26.5951 48.7599 26.6648 48.9384C26.7346 49.117 26.7882 49.3109 26.823 49.5193C26.8579 49.7276 26.8757 49.953 26.8757 50.1919V84.3267C26.8757 84.5657 26.8579 84.791 26.823 84.9994C26.7882 85.2077 26.7346 85.4016 26.6648 85.5802C26.5951 85.7588 26.5109 85.9246 26.4055 86.0734C26.3009 86.2223 26.1767 86.3558 26.0364 86.4748C25.8961 86.5939 25.7371 86.6959 25.5619 86.7852C25.3867 86.8745 25.1962 86.9528 24.9862 87.0123C24.7761 87.0727 24.5499 87.1135 24.305 87.1432C24.0601 87.1722 23.7939 87.1909 23.5141 87.1909C23.2395 87.1909 22.9809 87.1722 22.7403 87.1432C22.4996 87.1143 22.2785 87.0744 22.0719 87.0123C21.8652 86.9519 21.6764 86.8745 21.5047 86.7852C21.3329 86.6959 21.1764 86.5947 21.0386 86.4748C20.9009 86.3558 20.7818 86.2223 20.6781 86.0734C20.5752 85.9246 20.4876 85.7588 20.4187 85.5802C20.3498 85.4016 20.2996 85.2077 20.2648 84.9994C20.2308 84.791 20.2163 84.5648 20.2163 84.3267V50.1919C20.2163 49.953 20.2299 49.7276 20.2648 49.5193C20.2988 49.3109 20.3498 49.117 20.4187 48.9384C20.4876 48.7599 20.5752 48.5983 20.6781 48.4495C20.781 48.3007 20.9009 48.1671 21.0386 48.0472C21.1764 47.9282 21.3329 47.8219 21.5047 47.7326C21.6764 47.6433 21.8652 47.5693 22.0719 47.5098C22.2785 47.4503 22.4996 47.4043 22.7403 47.3746C22.9809 47.3448 23.2386 47.3312 23.5141 47.3312Z"
              fill="black"/>
        <path d="M43.5903 50.7064C43.325 50.7064 43.0597 50.7175 42.7952 50.7413C42.5299 50.7651 42.2646 50.8034 42.0001 50.851C41.7348 50.8986 41.4694 50.9556 41.205 51.027C40.9397 51.0985 40.6743 51.1826 40.4099 51.2779C40.1445 51.3731 39.8792 51.4803 39.6147 51.5985C39.3494 51.7175 39.0841 51.8468 38.8196 51.9897C38.5543 52.1325 38.289 52.289 38.0245 52.4557C37.7592 52.6224 37.4981 52.7975 37.2336 52.9872C36.9539 53.1768 36.6894 53.3809 36.447 53.5978C36.2047 53.8155 35.9793 54.0468 35.7744 54.2917C35.5694 54.5366 35.384 54.7968 35.2165 55.0698C35.049 55.3419 34.9027 55.6268 34.7726 55.927C34.6425 56.2272 34.5277 56.5401 34.4299 56.8675C34.3321 57.1949 34.253 57.5368 34.1884 57.8914C34.1237 58.246 34.0719 58.6159 34.0387 58.9986C34.0064 59.3813 33.9902 59.7793 33.9902 60.1892V84.3063C33.9902 84.5461 34.0089 84.7732 34.043 84.9832C34.077 85.1933 34.128 85.388 34.1969 85.5675C34.2658 85.7477 34.3534 85.9144 34.4562 86.0641C34.5591 86.2138 34.6791 86.3481 34.8168 86.468C34.9546 86.5879 35.1111 86.69 35.2828 86.7801C35.4546 86.8703 35.6434 86.9485 35.85 87.0089C36.0567 87.0693 36.2778 87.1109 36.5176 87.1407C36.7583 87.1705 37.0159 87.1892 37.2915 87.1892C37.5661 87.1892 37.8247 87.1705 38.0653 87.1407C38.306 87.1109 38.5313 87.0693 38.738 87.0089C38.9446 86.9485 39.1334 86.8703 39.3052 86.7801C39.477 86.69 39.6292 86.5879 39.767 86.468C39.9047 86.3481 40.0289 86.2138 40.1318 86.0641C40.2347 85.9144 40.318 85.7477 40.3869 85.5675C40.4558 85.3872 40.506 85.1933 40.5408 84.9832C40.5748 84.7732 40.5935 84.5461 40.5935 84.3063V61.7411C40.5935 61.4614 40.6114 61.1909 40.6463 60.9282C40.6811 60.6654 40.7347 60.4128 40.8044 60.1679C40.8742 59.923 40.9635 59.6883 41.0681 59.4604C41.1727 59.2325 41.2926 59.0114 41.4329 58.8013C41.4975 58.6814 41.5749 58.5726 41.6574 58.4671C41.7399 58.3625 41.83 58.263 41.9295 58.1729C42.0299 58.0827 42.137 58.0019 42.2544 57.9271C42.3717 57.8523 42.4976 57.7851 42.6319 57.7247C42.7671 57.6643 42.9143 57.6116 43.0673 57.5665C43.2196 57.5215 43.3811 57.4824 43.5504 57.4526C43.7204 57.4228 43.899 57.4016 44.0861 57.3871C44.2732 57.3718 44.4696 57.365 44.6746 57.365H52.1717C52.3715 57.365 52.5645 57.3718 52.7474 57.3871C52.9302 57.4024 53.1037 57.4228 53.2704 57.4526C53.437 57.4824 53.5952 57.5215 53.7449 57.5665C53.8946 57.6116 54.034 57.6643 54.1667 57.7247C54.2993 57.7851 54.4243 57.8523 54.54 57.9271C54.6556 58.0019 54.762 58.0836 54.8606 58.1729C54.9592 58.263 55.0511 58.3625 55.1327 58.4671C55.2144 58.5717 55.2875 58.6814 55.3521 58.8013L55.2909 58.7443C55.4508 58.9842 55.5928 59.2248 55.7127 59.4697C55.8326 59.7146 55.9312 59.9621 56.0112 60.2121C56.0911 60.4621 56.1515 60.7173 56.1915 60.9724C56.2314 61.2275 56.2527 61.4818 56.2527 61.7411V84.3063C56.2527 84.5461 56.2663 84.7732 56.3012 84.9832C56.3352 85.1933 56.3905 85.388 56.4593 85.5675C56.5282 85.7477 56.6107 85.9144 56.7145 86.0641C56.8174 86.2138 56.9373 86.3481 57.075 86.468C57.2128 86.5879 57.3693 86.69 57.541 86.7801C57.7128 86.8703 57.9016 86.9485 58.1082 87.0089C58.3149 87.0693 58.5402 87.1109 58.7809 87.1407C59.0216 87.1705 59.2792 87.1892 59.5548 87.1892C59.8294 87.1892 60.088 87.1705 60.3286 87.1407C60.5693 87.1109 60.7904 87.0693 60.9962 87.0089C61.2028 86.9485 61.3916 86.8703 61.5634 86.7801C61.7352 86.69 61.8917 86.5879 62.0294 86.468C62.1672 86.3481 62.2862 86.2138 62.39 86.0641C62.4929 85.9144 62.5805 85.7477 62.6493 85.5675C62.7182 85.3872 62.7684 85.1933 62.8033 84.9832C62.8373 84.7732 62.856 84.5461 62.856 84.3063V60.1892C62.856 59.7793 62.8373 59.3804 62.8033 58.9986C62.7693 58.6159 62.7174 58.246 62.6493 57.8914C62.5822 57.5368 62.5005 57.1949 62.3985 56.8675C62.2973 56.5401 62.1774 56.2272 62.0422 55.927C61.907 55.6268 61.7581 55.3428 61.5898 55.0698C61.4214 54.7977 61.2343 54.5366 61.0319 54.2917C60.8295 54.0468 60.6093 53.8146 60.3728 53.5978C60.1364 53.3801 59.8822 53.1768 59.6126 52.9872C59.3379 52.7975 59.0632 52.6215 58.7911 52.4557C58.519 52.2899 58.2477 52.1325 57.9781 51.9897C57.7086 51.8468 57.4415 51.7175 57.1737 51.5985C56.9058 51.4794 56.6388 51.3723 56.3734 51.2779C56.1081 51.1826 55.8454 51.0985 55.5826 51.027C55.3198 50.9556 55.0604 50.8986 54.8002 50.851C54.54 50.8034 54.2798 50.7651 54.0221 50.7413C53.7644 50.7175 53.5085 50.7064 53.2534 50.7064H43.5903Z"
              fill="black"/>
        <path d="M74.6971 38.8281C74.4224 38.8281 74.1639 38.8417 73.9232 38.8723C73.6826 38.9021 73.4572 38.9489 73.2506 39.0084C73.0439 39.0688 72.8551 39.1428 72.6834 39.2329C72.5116 39.3231 72.3594 39.4294 72.2216 39.5493C72.0838 39.6692 71.9597 39.8035 71.8568 39.9532C71.7539 40.1029 71.6705 40.2695 71.6017 40.4498C71.5328 40.6301 71.4826 40.824 71.4477 41.034C71.4137 41.2441 71.395 41.466 71.395 41.7067V84.3072C71.395 84.547 71.4137 84.774 71.4477 84.9841C71.4818 85.1941 71.5328 85.3889 71.6017 85.5683C71.6705 85.7486 71.753 85.9153 71.8568 86.0649C71.9597 86.2146 72.0838 86.349 72.2216 86.4689C72.3594 86.5888 72.5107 86.6908 72.6834 86.781C72.8551 86.8711 73.0439 86.9494 73.2506 87.0097C73.4572 87.0701 73.6826 87.1118 73.9232 87.1415C74.1639 87.1713 74.4216 87.19 74.6971 87.19C74.9718 87.19 75.2303 87.1713 75.471 87.1415C75.7116 87.1118 75.9327 87.0701 76.1385 87.0097C76.3452 86.9494 76.534 86.8711 76.7057 86.781C76.8775 86.6908 77.034 86.5888 77.1717 86.4689C77.3095 86.349 77.4286 86.2146 77.5323 86.0649C77.6352 85.9153 77.7228 85.7486 77.7917 85.5683C77.8606 85.388 77.9107 85.1941 77.9456 84.9841C77.9796 84.774 77.9983 84.547 77.9983 84.3072V57.3642L89.5781 57.365C89.778 57.365 89.971 57.3718 90.1539 57.3871C90.3367 57.4024 90.511 57.4228 90.6768 57.4526C90.8435 57.4824 91.0017 57.5215 91.1514 57.5666C91.301 57.6116 91.4405 57.6643 91.5732 57.7247C91.7058 57.7851 91.8266 57.8523 91.9422 57.9271C92.0579 58.002 92.1684 58.0836 92.2671 58.1729C92.3657 58.263 92.4533 58.3625 92.535 58.4671C92.6166 58.5717 92.6897 58.6814 92.7544 58.8013L92.6974 58.7443C92.8573 58.9842 92.995 59.2248 93.1149 59.4697C93.2348 59.7146 93.3377 59.9621 93.4185 60.2121C93.4985 60.4621 93.5588 60.7173 93.5988 60.9724C93.6388 61.2275 93.6558 61.4818 93.6558 61.7411V84.3063C93.6558 84.5461 93.6745 84.7732 93.7085 84.9832C93.7425 85.1933 93.7935 85.388 93.8624 85.5675C93.9313 85.7477 94.0189 85.9144 94.1218 86.0641C94.2247 86.2138 94.3446 86.3481 94.4824 86.468C94.6201 86.5879 94.7766 86.69 94.9484 86.7801C95.1202 86.8703 95.3089 86.9485 95.5156 87.0089C95.7222 87.0693 95.9433 87.1109 96.1831 87.1407C96.4238 87.1705 96.6815 87.1892 96.957 87.1892C97.2317 87.1892 97.4893 87.1705 97.7309 87.1407C97.9715 87.1109 98.1969 87.0693 98.4035 87.0089C98.6102 86.9485 98.7981 86.8703 98.9707 86.7801C99.1425 86.69 99.2947 86.5879 99.4325 86.468C99.5703 86.3481 99.6893 86.2138 99.7931 86.0641C99.896 85.9144 99.9836 85.7477 100.052 85.5675C100.121 85.3872 100.171 85.1933 100.206 84.9832C100.24 84.7732 100.259 84.5461 100.259 84.3063V60.1892C100.259 59.7793 100.245 59.3804 100.211 58.9986C100.177 58.6159 100.125 58.246 100.057 57.8914C99.9895 57.5368 99.9028 57.1949 99.8016 56.8675C99.7004 56.5401 99.5847 56.2272 99.4504 55.927C99.3151 55.6268 99.1621 55.3428 98.9937 55.0698C98.8253 54.7977 98.6382 54.5366 98.4358 54.2917C98.2334 54.0468 98.0174 53.8146 97.781 53.5978C97.5446 53.3801 97.2912 53.1768 97.0208 52.9872C96.7461 52.7975 96.4714 52.6215 96.1993 52.4557C95.9272 52.289 95.6559 52.1325 95.3863 51.9897C95.1159 51.8468 94.8455 51.7175 94.5776 51.5985C94.3097 51.4794 94.047 51.3723 93.7825 51.2779C93.5172 51.1826 93.2493 51.0985 92.9874 51.027C92.7246 50.9556 92.4652 50.8986 92.205 50.851C91.9448 50.8034 91.6846 50.7651 91.4269 50.7413C91.1692 50.7175 90.9175 50.7064 90.6624 50.7064H78.0017V41.7067C78.0017 41.4669 77.983 41.2441 77.949 41.034C77.915 40.824 77.864 40.6293 77.7951 40.4498C77.7262 40.2695 77.6386 40.1029 77.5357 39.9532C77.4328 39.8035 77.3129 39.6692 77.1751 39.5493C77.0374 39.4294 76.8809 39.3231 76.7091 39.2329C76.5373 39.1428 76.3486 39.0688 76.1419 39.0084C75.9353 38.948 75.7142 38.9021 75.4744 38.8723C75.2337 38.8426 74.9718 38.8281 74.6971 38.8281Z"
              fill="black"/>
    </g>
    <defs>
        <clipPath id="clip0_1167_1780">
            <rect width="108" height="108" fill="white"/>
        </clipPath>
    </defs>
</svg>